<svg width="48" height="48" viewBox="0 0 48 48" fill="none" xmlns="http://www.w3.org/2000/svg">
<rect width="48" height="48" rx="8" fill="#F4F4F4"/>
<path d="M21 15H16C15.4477 15 15 15.4477 15 16V21C15 21.5523 15.4477 22 16 22H21C21.5523 22 22 21.5523 22 21V16C22 15.4477 21.5523 15 21 15Z" stroke="#8D8D8D" stroke-width="2" stroke-linecap="round" stroke-linejoin="round"/>
<path d="M21 26H16C15.4477 26 15 26.4477 15 27V32C15 32.5523 15.4477 33 16 33H21C21.5523 33 22 32.5523 22 32V27C22 26.4477 21.5523 26 21 26Z" stroke="#8D8D8D" stroke-width="2" stroke-linecap="round" stroke-linejoin="round"/>
<path d="M26 16H33" stroke="#8D8D8D" stroke-width="2" stroke-linecap="round" stroke-linejoin="round"/>
<path d="M26 21H33" stroke="#8D8D8D" stroke-width="2" stroke-linecap="round" stroke-linejoin="round"/>
<path d="M26 27H33" stroke="#8D8D8D" stroke-width="2" stroke-linecap="round" stroke-linejoin="round"/>
<path d="M26 32H33" stroke="#8D8D8D" stroke-width="2" stroke-linecap="round" stroke-linejoin="round"/>
</svg>
